<?xml version="1.0" encoding="utf-8"?>
<!-- Generator: Adobe Illustrator 15.0.2, SVG Export Plug-In  -->
<!DOCTYPE svg PUBLIC "-//W3C//DTD SVG 1.1//EN" "http://www.w3.org/Graphics/SVG/1.1/DTD/svg11.dtd" [
	<!ENTITY ns_flows "http://ns.adobe.com/Flows/1.0/">
]>
<svg version="1.1"
	 xmlns="http://www.w3.org/2000/svg" xmlns:xlink="http://www.w3.org/1999/xlink" xmlns:a="http://ns.adobe.com/AdobeSVGViewerExtensions/3.0/"
	 x="0px" y="0px" width="17px" height="16px" viewBox="-0.469 0.063 17 16"
	 overflow="visible" enable-background="new -0.469 0.063 17 16" xml:space="preserve">
<defs>
</defs>
<g>
	<defs>
		<rect id="SVGID_3_" width="17.125" height="16.055"/>
	</defs>
	<clipPath id="SVGID_4_">
		<use xlink:href="#SVGID_3_"  overflow="visible"/>
	</clipPath>
	<path clip-path="url(#SVGID_4_)" d="M15.769,0.428c-3.991-0.711-6.73,0.555-7.03,0.7c-0.082,0.04-0.151,0.091-0.215,0.146
		C8.459,1.217,8.387,1.167,8.309,1.128c-0.301-0.145-3.043-1.411-7.032-0.7C0.809,0.515,0.529,0.846,0.529,1.323v8.696
		c0,0.272,0.081,0.488,0.242,0.64c0.107,0.094,0.3,0.208,0.602,0.185c3.545-0.202,6.311,0.677,6.833,0.862
		c0.104,0.035,0.21,0.057,0.318,0.057c0.104,0,0.212-0.021,0.314-0.055c0.52-0.186,3.283-1.064,6.825-0.864
		c0.31,0.023,0.501-0.091,0.608-0.183c0.156-0.153,0.241-0.367,0.241-0.638V1.986V1.653V1.325
		C16.514,0.848,16.237,0.515,15.769,0.428 M8.198,11.022c-0.879-0.283-3.547-1.018-6.871-0.825
		c-0.088,0.006-0.115-0.014-0.117-0.014c-0.012-0.012-0.034-0.062-0.034-0.164V1.325c0-0.162,0.056-0.232,0.212-0.256
		C5.176,0.392,7.742,1.573,8.023,1.71c0.153,0.075,0.175,0.243,0.175,0.334V11.022 M15.868,10.019c0,0.1-0.022,0.152-0.034,0.162
		c-0.002,0.002-0.031,0.02-0.122,0.014c-3.318-0.192-5.986,0.544-6.864,0.827V2.044c0-0.091,0.023-0.26,0.174-0.334
		c0.282-0.137,2.847-1.319,6.636-0.642c0.153,0.024,0.213,0.094,0.213,0.256v0.329v0.333L15.868,10.019z"/>
</g>
<g>
	<defs>
		<rect id="SVGID_2_" width="17.125" height="17.125"/>
	</defs>
	<clipPath id="SVGID_5_">
		<use xlink:href="#SVGID_2_"  overflow="visible"/>
	</clipPath>
	<path clip-path="url(#SVGID_5_)" d="M16.222,14.527c-3.785-0.343-6.786,0.573-7.614,0.864c-0.056,0.025-0.113,0.025-0.173,0
		c-0.825-0.289-3.825-1.207-7.61-0.864c-0.18,0.013-0.31,0.173-0.295,0.351c0.017,0.176,0.17,0.312,0.352,0.29
		c3.656-0.328,6.543,0.556,7.34,0.835c0.1,0.035,0.2,0.053,0.303,0.053c0.099,0,0.2-0.018,0.297-0.051
		c0.801-0.281,3.685-1.163,7.34-0.835c0.186,0.023,0.336-0.114,0.351-0.29C16.527,14.7,16.397,14.54,16.222,14.527"/>
</g>
<g>
	<defs>
		<rect id="SVGID_1_" width="17.125" height="17.125"/>
	</defs>
	<clipPath id="SVGID_6_">
		<use xlink:href="#SVGID_1_"  overflow="visible"/>
	</clipPath>
	<path clip-path="url(#SVGID_6_)" d="M16.222,12.909c-3.77-0.336-6.765,0.57-7.599,0.862c-0.065,0.026-0.137,0.026-0.206,0
		c-0.829-0.292-3.826-1.198-7.592-0.862c-0.179,0.017-0.31,0.174-0.293,0.352c0.017,0.183,0.169,0.311,0.352,0.293
		c3.637-0.328,6.523,0.55,7.322,0.825c0.105,0.037,0.21,0.055,0.318,0.055c0.107,0,0.212-0.018,0.316-0.055
		c0.8-0.275,3.684-1.148,7.324-0.825c0.184,0.018,0.336-0.11,0.35-0.293C16.527,13.083,16.397,12.923,16.222,12.909"/>
</g>
</svg>
