<svg xmlns="http://www.w3.org/2000/svg" xmlns:xlink="http://www.w3.org/1999/xlink" xmlns:a="http://ns.adobe.com/AdobeSVGViewerExtensions/3.0/" version="1.1" x="0px" y="0px" width="22px" height="17px" viewBox="-0.5 -0.5 22 17" overflow="visible" enable-background="new -0.5 -0.5 20 17" xml:space="preserve"  preserveAspectRatio="xMidYMid meet"><rect id="svgEditorBackground" x="-0.5" y="-0.5" width="20" height="17" style="fill: none; stroke: none;"/>
<defs>
</defs>
<rect fill="#FFFFFF" width="19" height="16" x="-0.386364" y="-0.236111" />
<path d="M3.525,0.654c1.218,0,2.202,0.984,2.202,2.199S4.743,5.051,3.525,5.051c-1.212,0-2.197-0.984-2.197-2.199  S2.313,0.654,3.525,0.654"/>
<path d="M15.993,8.212c-0.005-0.272-0.052-0.511-0.19-0.721c-0.135-0.209-0.398-0.352-0.644-0.343  c-0.279,0.004-0.513,0.126-0.718,0.296c0,0-1.273,1.01-2.229,1.771V8.067c0-1.231-0.997-2.228-2.231-2.229H2.238  c-1.232,0-2.227,1-2.227,2.229v4.779v0.53v0.397c0,1.231,0.995,2.226,2.227,2.226H9.98c1.232,0,2.229-0.991,2.231-2.226v-0.705  c0.909,0.718,1.995,1.572,2.234,1.77c0.201,0.166,0.434,0.277,0.707,0.285c0.236,0.008,0.5-0.124,0.641-0.332  c0.146-0.202,0.197-0.448,0.199-0.721C15.993,13.997,15.993,8.282,15.993,8.212 M15.139,14.064c0,0.097-0.013,0.164-0.023,0.199  c-0.029-0.017-0.074-0.033-0.129-0.086c-0.322-0.264-1.992-1.578-2.938-2.326c-0.128-0.101-0.302-0.117-0.45-0.049  c-0.146,0.069-0.242,0.219-0.242,0.387v1.584c0,0.762-0.617,1.377-1.375,1.379H2.238c-0.758,0-1.372-0.617-1.374-1.377V13.38v-0.002  V8.067C0.866,7.309,1.48,6.694,2.238,6.692h7.746c0.757,0.002,1.372,0.617,1.374,1.375v2.035c0,0.157,0.095,0.31,0.242,0.383  c0.146,0.07,0.32,0.051,0.451-0.051c0.497-0.396,2.907-2.306,2.943-2.334c0.045-0.039,0.09-0.066,0.119-0.08  c0.016,0.04,0.025,0.105,0.025,0.2C15.139,8.278,15.139,14.005,15.139,14.064"/>
<path d="M9.143,0.654c1.215,0,2.2,0.984,2.2,2.199s-0.988,2.199-2.2,2.199c-1.21,0-2.195-0.984-2.195-2.199S7.93,0.654,9.143,0.654"/>
</svg>