<?xml version="1.0" encoding="utf-8"?>
<!-- Generator: Adobe Illustrator 15.0.2, SVG Export Plug-In  -->
<!DOCTYPE svg PUBLIC "-//W3C//DTD SVG 1.1//EN" "http://www.w3.org/Graphics/SVG/1.1/DTD/svg11.dtd" [
	<!ENTITY ns_flows "http://ns.adobe.com/Flows/1.0/">
]>
<svg version="1.1"
	 xmlns="http://www.w3.org/2000/svg" xmlns:xlink="http://www.w3.org/1999/xlink" xmlns:a="http://ns.adobe.com/AdobeSVGViewerExtensions/3.0/"
	 x="0px" y="0px" width="16px" height="16px" viewBox="-0.59 -0.668 16 16"
	 overflow="visible" enable-background="new -0.59 -0.668 16 16" xml:space="preserve">
<defs>
</defs>
<path d="M11.922,14.917H2.995C1.343,14.917,0,13.573,0,11.922V2.995C0,1.344,1.343,0,2.995,0h8.927c1.651,0,2.995,1.344,2.995,2.995
	v8.927C14.917,13.573,13.573,14.917,11.922,14.917z M2.995,0.633c-1.302,0-2.362,1.06-2.362,2.362v8.927
	c0,1.303,1.06,2.362,2.362,2.362h8.927c1.303,0,2.362-1.06,2.362-2.362V2.995c0-1.303-1.06-2.362-2.362-2.362H2.995z"/>
<path d="M6.697,9.875l-2.678,2.679c-0.173,0.174-0.403,0.262-0.631,0.262c-0.229,0-0.457-0.088-0.631-0.262
	c-0.349-0.349-0.349-0.914,0-1.263l2.047-2.047L2.756,7.197c-0.349-0.349-0.349-0.914,0-1.263c0.35-0.35,0.914-0.35,1.262,0
	l2.678,2.679C6.865,8.78,6.958,9.007,6.958,9.244S6.865,9.708,6.697,9.875z"/>
<path d="M11.549,11.028h-1.047l0,0l-2.775,0.001c-0.494-0.001-0.893,0.398-0.893,0.893c0,0.493,0.399,0.894,0.893,0.894h1.048l0,0
	l2.774-0.001c0.494,0.001,0.893-0.398,0.893-0.893C12.441,11.429,12.043,11.028,11.549,11.028z"/>
</svg>
